<svg width="96" height="96" viewBox="0 0 96 96" fill="none" xmlns="http://www.w3.org/2000/svg">
<path d="M64.7148 96C78.2324 96 89.2827 84.927 89.2827 71.4389V0H71.4389V71.4389C71.4389 75.5284 68.3276 78.8571 64.2852 78.8571C60.2429 78.8571 57.1431 75.5284 57.1431 71.4389V24.5611C57.1431 11.073 46.0928 0 32.5638 0C19.0348 0 7.99609 11.073 7.99609 24.5611V96H25.8399V24.5611C25.8399 20.4716 28.9512 17.1429 32.9935 17.1429C37.0359 17.1429 40.1357 20.4716 40.1357 24.5611V71.4389C40.1357 84.927 51.186 96 64.7148 96Z" fill="url(#paint0_linear_1_2)"/>
<defs>
<linearGradient id="paint0_linear_1_2" x1="89.2827" y1="48" x2="7.99609" y2="48" gradientUnits="userSpaceOnUse">
<stop stop-color="white"/>
<stop offset="1" stop-color="white" stop-opacity="0.7"/>
</linearGradient>
</defs>
</svg>
